G04 MADE WITH FRITZING*
G04 WWW.FRITZING.ORG*
G04 DOUBLE SIDED*
G04 HOLES PLATED*
G04 CONTOUR ON CENTER OF CONTOUR VECTOR*
%ASAXBY*%
%FSLAX23Y23*%
%MOIN*%
%OFA0B0*%
%SFA1.0B1.0*%
%ADD10C,0.078000*%
%ADD11C,0.024000*%
%LNCOPPER0*%
G90*
G70*
G54D10*
X1153Y1463D03*
X1053Y1463D03*
X953Y1463D03*
X2953Y1463D03*
X2853Y1463D03*
X2753Y1463D03*
X703Y1163D03*
X703Y1063D03*
X703Y963D03*
X2503Y1163D03*
X2503Y1063D03*
X2503Y963D03*
X3203Y1163D03*
X3203Y963D03*
X1403Y1163D03*
X1403Y963D03*
X3403Y1163D03*
X3403Y963D03*
X1603Y1163D03*
X1603Y963D03*
X3003Y2463D03*
X3003Y2263D03*
X3003Y2063D03*
X2403Y2463D03*
X2403Y2263D03*
X2403Y2063D03*
X2703Y2463D03*
X2703Y2263D03*
X2703Y2063D03*
X2103Y2463D03*
X2103Y2263D03*
X2103Y2063D03*
X1803Y2463D03*
X1803Y2263D03*
X1803Y2063D03*
X1503Y2463D03*
X1503Y2263D03*
X1503Y2063D03*
X303Y3213D03*
X303Y3113D03*
X303Y3013D03*
X1503Y3213D03*
X1503Y3113D03*
X1503Y3013D03*
X1803Y3213D03*
X1803Y3113D03*
X1803Y3013D03*
X603Y3213D03*
X603Y3113D03*
X603Y3013D03*
X1203Y3213D03*
X1203Y3113D03*
X1203Y3013D03*
X903Y3213D03*
X903Y3113D03*
X903Y3013D03*
X3153Y3213D03*
X3153Y3113D03*
X2903Y3213D03*
X2903Y3113D03*
X3403Y3213D03*
X3403Y3113D03*
X2653Y3213D03*
X2653Y3113D03*
X2403Y3213D03*
X2403Y3113D03*
X3653Y3213D03*
X3653Y3113D03*
X553Y2463D03*
X553Y2363D03*
X553Y2263D03*
X3353Y2463D03*
X3353Y2363D03*
X3353Y2263D03*
G54D11*
X3603Y2963D02*
X3153Y2513D01*
D02*
X3153Y2513D02*
X3153Y2063D01*
D02*
X3153Y2063D02*
X3033Y2063D01*
D02*
X3644Y3085D02*
X3603Y2963D01*
D02*
X3554Y3213D02*
X3554Y3013D01*
D02*
X3104Y2563D02*
X3104Y2265D01*
D02*
X3554Y3013D02*
X3104Y2563D01*
D02*
X3104Y2265D02*
X3033Y2264D01*
D02*
X3623Y3213D02*
X3554Y3213D01*
D02*
X2853Y2062D02*
X2853Y2514D01*
D02*
X2853Y2514D02*
X3353Y2963D01*
D02*
X3353Y2963D02*
X3394Y3085D01*
D02*
X2733Y2063D02*
X2853Y2062D01*
D02*
X3304Y3013D02*
X2803Y2564D01*
D02*
X3304Y3213D02*
X3304Y3013D01*
D02*
X2803Y2264D02*
X2733Y2264D01*
D02*
X2803Y2564D02*
X2803Y2264D01*
D02*
X3373Y3213D02*
X3304Y3213D01*
D02*
X2553Y2514D02*
X2553Y2062D01*
D02*
X3104Y2963D02*
X2553Y2514D01*
D02*
X3144Y3085D02*
X3104Y2963D01*
D02*
X2553Y2062D02*
X2433Y2063D01*
D02*
X2503Y2564D02*
X2503Y2264D01*
D02*
X3054Y3213D02*
X3054Y3013D01*
D02*
X3054Y3013D02*
X2503Y2564D01*
D02*
X2503Y2264D02*
X2433Y2264D01*
D02*
X3123Y3213D02*
X3054Y3213D01*
D02*
X2854Y2963D02*
X2253Y2514D01*
D02*
X2253Y2514D02*
X2253Y2062D01*
D02*
X2253Y2062D02*
X2133Y2063D01*
D02*
X2894Y3085D02*
X2854Y2963D01*
D02*
X2204Y2564D02*
X2204Y2264D01*
D02*
X2804Y3013D02*
X2204Y2564D01*
D02*
X2804Y3213D02*
X2804Y3013D01*
D02*
X2204Y2264D02*
X2133Y2264D01*
D02*
X2873Y3213D02*
X2804Y3213D01*
D02*
X1954Y2062D02*
X1833Y2063D01*
D02*
X1954Y2514D02*
X1954Y2062D01*
D02*
X2644Y3085D02*
X2604Y2963D01*
D02*
X2604Y2963D02*
X1954Y2514D01*
D02*
X1904Y2264D02*
X1833Y2264D01*
D02*
X1904Y2564D02*
X1904Y2264D01*
D02*
X2554Y3213D02*
X2554Y3013D01*
D02*
X2554Y3013D02*
X1904Y2564D01*
D02*
X2623Y3213D02*
X2554Y3213D01*
D02*
X1654Y2513D02*
X1654Y2062D01*
D02*
X1654Y2062D02*
X1533Y2063D01*
D02*
X2354Y2963D02*
X1654Y2513D01*
D02*
X2394Y3085D02*
X2354Y2963D01*
D02*
X2304Y3013D02*
X1604Y2564D01*
D02*
X2304Y3213D02*
X2304Y3013D01*
D02*
X2373Y3213D02*
X2304Y3213D01*
D02*
X1604Y2564D02*
X1604Y2264D01*
D02*
X1604Y2264D02*
X1533Y2264D01*
D02*
X1803Y2814D02*
X1352Y2514D01*
D02*
X1353Y1964D02*
X2954Y1964D01*
D02*
X1352Y2514D02*
X1353Y1964D01*
D02*
X2954Y1964D02*
X2953Y1493D01*
D02*
X1803Y2983D02*
X1803Y2814D01*
D02*
X1703Y3112D02*
X1703Y2814D01*
D02*
X1304Y2562D02*
X1302Y1913D01*
D02*
X1703Y2814D02*
X1304Y2562D01*
D02*
X1773Y3113D02*
X1703Y3112D01*
D02*
X1302Y1913D02*
X2852Y1913D01*
D02*
X2852Y1913D02*
X2853Y1493D01*
D02*
X1604Y3214D02*
X1604Y2863D01*
D02*
X1604Y2863D02*
X1253Y2613D01*
D02*
X1253Y2613D02*
X1254Y1862D01*
D02*
X2754Y1862D02*
X2753Y1493D01*
D02*
X1773Y3213D02*
X1604Y3214D01*
D02*
X1254Y1862D02*
X2754Y1862D01*
D02*
X1202Y2664D02*
X1203Y1814D01*
D02*
X1203Y1814D02*
X2502Y1814D01*
D02*
X1502Y2863D02*
X1202Y2664D01*
D02*
X2502Y1814D02*
X2503Y1193D01*
D02*
X1503Y2983D02*
X1502Y2863D01*
D02*
X1152Y1763D02*
X2403Y1763D01*
D02*
X1403Y2863D02*
X1154Y2712D01*
D02*
X1403Y3112D02*
X1403Y2863D01*
D02*
X1154Y2712D02*
X1152Y1763D01*
D02*
X2403Y1063D02*
X2473Y1063D01*
D02*
X1473Y3113D02*
X1403Y3112D01*
D02*
X2403Y1763D02*
X2403Y1063D01*
D02*
X1304Y2913D02*
X1103Y2763D01*
D02*
X1304Y3214D02*
X1304Y2913D01*
D02*
X1103Y2763D02*
X1105Y1712D01*
D02*
X1105Y1712D02*
X2352Y1712D01*
D02*
X2352Y964D02*
X2473Y963D01*
D02*
X1473Y3213D02*
X1304Y3214D01*
D02*
X2352Y1712D02*
X2352Y964D01*
D02*
X1152Y1665D02*
X1153Y1493D01*
D02*
X1054Y1665D02*
X1152Y1665D01*
D02*
X1054Y2814D02*
X1054Y1665D01*
D02*
X1202Y2913D02*
X1054Y2814D01*
D02*
X1203Y2983D02*
X1202Y2913D01*
D02*
X1103Y2913D02*
X1003Y2863D01*
D02*
X1003Y2863D02*
X1003Y1614D01*
D02*
X1054Y1614D02*
X1053Y1493D01*
D02*
X1103Y3112D02*
X1103Y2913D01*
D02*
X1173Y3113D02*
X1103Y3112D01*
D02*
X1003Y1614D02*
X1054Y1614D01*
D02*
X1003Y2964D02*
X953Y2913D01*
D02*
X1003Y3214D02*
X1003Y2964D01*
D02*
X953Y2913D02*
X953Y1493D01*
D02*
X1173Y3213D02*
X1003Y3214D01*
D02*
X704Y1614D02*
X703Y1193D01*
D02*
X855Y2863D02*
X853Y1614D01*
D02*
X853Y1614D02*
X704Y1614D01*
D02*
X894Y2985D02*
X855Y2863D01*
D02*
X754Y1665D02*
X602Y1665D01*
D02*
X602Y1665D02*
X602Y1063D01*
D02*
X754Y3113D02*
X754Y1665D01*
D02*
X602Y1063D02*
X673Y1063D01*
D02*
X873Y3113D02*
X754Y3113D01*
D02*
X554Y1712D02*
X554Y964D01*
D02*
X704Y1712D02*
X554Y1712D01*
D02*
X554Y964D02*
X673Y963D01*
D02*
X873Y3213D02*
X704Y3212D01*
D02*
X704Y3212D02*
X704Y1712D01*
D02*
X604Y2562D02*
X567Y2490D01*
D02*
X603Y2983D02*
X604Y2562D01*
D02*
X454Y2664D02*
X452Y2362D01*
D02*
X502Y3112D02*
X454Y2664D01*
D02*
X452Y2362D02*
X523Y2363D01*
D02*
X573Y3113D02*
X502Y3112D01*
D02*
X404Y2764D02*
X404Y2263D01*
D02*
X454Y3214D02*
X404Y2764D01*
D02*
X573Y3213D02*
X454Y3214D01*
D02*
X404Y2263D02*
X523Y2263D01*
D02*
X205Y3113D02*
X204Y514D01*
D02*
X204Y514D02*
X3653Y514D01*
D02*
X3653Y514D02*
X3653Y2361D01*
D02*
X3653Y2361D02*
X3383Y2363D01*
D02*
X273Y3113D02*
X205Y3113D01*
D02*
X3601Y562D02*
X3603Y2263D01*
D02*
X302Y563D02*
X3601Y562D01*
D02*
X3603Y2263D02*
X3383Y2263D01*
D02*
X303Y2983D02*
X302Y563D01*
D02*
X155Y465D02*
X3702Y465D01*
D02*
X152Y3212D02*
X155Y465D01*
D02*
X3702Y465D02*
X3702Y2464D01*
D02*
X273Y3213D02*
X152Y3212D01*
D02*
X3702Y2464D02*
X3383Y2463D01*
G04 End of Copper0*
M02*