G04 MADE WITH FRITZING*
G04 WWW.FRITZING.ORG*
G04 DOUBLE SIDED*
G04 HOLES PLATED*
G04 CONTOUR ON CENTER OF CONTOUR VECTOR*
%ASAXBY*%
%FSLAX23Y23*%
%MOIN*%
%OFA0B0*%
%SFA1.0B1.0*%
%ADD10C,0.078000*%
%LNCOPPER1*%
G90*
G70*
G54D10*
X703Y1163D03*
X703Y1063D03*
X703Y963D03*
X1153Y1463D03*
X1053Y1463D03*
X953Y1463D03*
X2953Y1463D03*
X2853Y1463D03*
X2753Y1463D03*
X2503Y1163D03*
X2503Y1063D03*
X2503Y963D03*
X2103Y2463D03*
X2103Y2263D03*
X2103Y2063D03*
X1403Y1163D03*
X1403Y963D03*
X1603Y1163D03*
X1603Y963D03*
X3403Y1163D03*
X3403Y963D03*
X3203Y1163D03*
X3203Y963D03*
X603Y3213D03*
X603Y3113D03*
X603Y3013D03*
X903Y3213D03*
X903Y3113D03*
X903Y3013D03*
X1203Y3213D03*
X1203Y3113D03*
X1203Y3013D03*
X1503Y3213D03*
X1503Y3113D03*
X1503Y3013D03*
X1803Y3213D03*
X1803Y3113D03*
X1803Y3013D03*
X303Y3213D03*
X303Y3113D03*
X303Y3013D03*
X1503Y2463D03*
X1503Y2263D03*
X1503Y2063D03*
X1803Y2463D03*
X1803Y2263D03*
X1803Y2063D03*
X2403Y2463D03*
X2403Y2263D03*
X2403Y2063D03*
X3003Y2463D03*
X3003Y2263D03*
X3003Y2063D03*
X2703Y2463D03*
X2703Y2263D03*
X2703Y2063D03*
X3153Y3213D03*
X3153Y3113D03*
X2903Y3213D03*
X2903Y3113D03*
X3403Y3213D03*
X3403Y3113D03*
X2653Y3213D03*
X2653Y3113D03*
X2403Y3213D03*
X2403Y3113D03*
X3653Y3213D03*
X3653Y3113D03*
X3353Y2463D03*
X3353Y2363D03*
X3353Y2263D03*
X553Y2463D03*
X553Y2363D03*
X553Y2263D03*
G04 End of Copper1*
M02*