; NON-PLATED HOLES START AT T1
; THROUGH (PLATED) HOLES START AT T100
M48
INCH
T1C0.047244
T100C0.038000
%
T1
X031032Y007632
X026032Y013632
X008032Y007632
X026032Y007632
X008032Y013632
X013032Y007632
X013032Y013632
X031032Y013632
T100
X032032Y009632
X010532Y014632
X027032Y022632
X036532Y032132
X018032Y022632
X026532Y031132
X027032Y024632
X015032Y020632
X018032Y030132
X015032Y031132
X011532Y014632
X007032Y009632
X031532Y032132
X033532Y022632
X018032Y031132
X033532Y024632
X030032Y022632
X032032Y011632
X015032Y030132
X014032Y009632
X015032Y032132
X016032Y011632
X025032Y010632
X012032Y032132
X034032Y011632
X024032Y022632
X012032Y031132
X009032Y032132
X030032Y024632
X006032Y031132
X018032Y024632
X005532Y023632
X018032Y020632
X028532Y014632
X024032Y024632
X012032Y030132
X025032Y011632
X021032Y024632
X007032Y011632
X003032Y032132
X030032Y020632
X009032Y031132
X021032Y022632
X029032Y031132
X015032Y024632
X025032Y009632
X034032Y009632
X024032Y020632
X005532Y022632
X031532Y031132
X034032Y031132
X024032Y032132
X036532Y031132
X027032Y020632
X034032Y032132
X003032Y031132
X021032Y020632
X007032Y010632
X018032Y032132
X009032Y030132
X033532Y023632
X029032Y032132
X027532Y014632
X014032Y011632
X009532Y014632
X005532Y024632
X003032Y030132
X006032Y030132
X024032Y031132
X026532Y032132
X016032Y009632
X015032Y022632
X029532Y014632
X006032Y032132
T00
M30
