G04 MADE WITH FRITZING*
G04 WWW.FRITZING.ORG*
G04 DOUBLE SIDED*
G04 HOLES PLATED*
G04 CONTOUR ON CENTER OF CONTOUR VECTOR*
%ASAXBY*%
%FSLAX23Y23*%
%MOIN*%
%OFA0B0*%
%SFA1.0B1.0*%
%ADD10C,0.075000*%
%ADD11C,0.078000*%
%ADD12C,0.070000*%
%ADD13C,0.074000*%
%ADD14R,0.070000X0.069972*%
%ADD15R,0.074000X0.074000*%
%ADD16C,0.024000*%
%ADD17R,0.001000X0.001000*%
%LNCOPPER0*%
G90*
G70*
G54D10*
X2863Y1261D03*
X2863Y961D03*
X413Y1811D03*
X613Y1811D03*
X1113Y1811D03*
X1113Y1511D03*
X3563Y1061D03*
X3563Y761D03*
X213Y1111D03*
X213Y811D03*
X1863Y511D03*
X1863Y111D03*
X413Y1111D03*
X413Y811D03*
G54D11*
X3063Y1711D03*
X3063Y1611D03*
X3063Y1511D03*
X3063Y1411D03*
G54D10*
X1763Y1961D03*
X1363Y1961D03*
X1363Y2111D03*
X1763Y2111D03*
G54D11*
X3363Y511D03*
X3363Y411D03*
X3113Y511D03*
X3113Y411D03*
X2863Y511D03*
X2863Y411D03*
X2613Y511D03*
X2613Y411D03*
X2363Y511D03*
X2363Y411D03*
X3363Y1161D03*
X3363Y1061D03*
X3363Y961D03*
X3363Y861D03*
X3363Y761D03*
X2613Y1061D03*
X2613Y1161D03*
X2613Y1261D03*
X2613Y1361D03*
X2613Y1461D03*
X3363Y1711D03*
X3363Y1611D03*
X3363Y1511D03*
X3363Y1411D03*
G54D12*
X1913Y1411D03*
X1813Y1411D03*
X1713Y1411D03*
X1613Y1411D03*
X1513Y1411D03*
X1413Y1411D03*
X1313Y1411D03*
X1213Y1411D03*
X1113Y1411D03*
X1013Y1411D03*
X913Y1411D03*
X813Y1411D03*
X713Y1411D03*
X613Y1411D03*
X513Y1411D03*
X1913Y811D03*
X1813Y811D03*
X1713Y811D03*
X1613Y811D03*
X1513Y811D03*
X1413Y811D03*
X1313Y811D03*
X1213Y811D03*
X1113Y811D03*
X1013Y811D03*
X913Y811D03*
X813Y811D03*
X713Y811D03*
X613Y811D03*
X513Y811D03*
G54D11*
X163Y411D03*
X163Y511D03*
X1713Y311D03*
X1713Y411D03*
X1713Y511D03*
X1413Y311D03*
X1413Y411D03*
X1413Y511D03*
X1113Y311D03*
X1113Y411D03*
X1113Y511D03*
X813Y311D03*
X813Y411D03*
X813Y511D03*
X513Y311D03*
X513Y411D03*
X513Y511D03*
G54D13*
X913Y1911D03*
X913Y1811D03*
X913Y1711D03*
X813Y1911D03*
X813Y1811D03*
X813Y1711D03*
G54D10*
X2213Y511D03*
X2213Y211D03*
X1563Y611D03*
X1563Y411D03*
X1263Y611D03*
X1263Y411D03*
X963Y611D03*
X963Y411D03*
X663Y611D03*
X663Y411D03*
X363Y611D03*
X363Y411D03*
X1963Y511D03*
X1963Y311D03*
G54D14*
X1913Y1411D03*
G54D15*
X813Y1911D03*
G54D16*
X514Y1910D02*
X782Y1910D01*
D02*
X513Y1440D02*
X514Y1910D01*
D02*
X1064Y1911D02*
X944Y1911D01*
D02*
X1063Y2112D02*
X1064Y1911D01*
D02*
X1335Y2111D02*
X1063Y2112D01*
D02*
X1213Y1961D02*
X1335Y1961D01*
D02*
X1213Y1711D02*
X1213Y1961D01*
D02*
X944Y1711D02*
X1213Y1711D01*
D02*
X414Y2012D02*
X915Y2012D01*
D02*
X915Y2012D02*
X914Y1942D01*
D02*
X315Y1961D02*
X414Y2012D01*
D02*
X315Y1011D02*
X315Y1961D01*
D02*
X1614Y1011D02*
X315Y1011D01*
D02*
X1613Y840D02*
X1614Y1011D01*
D02*
X2465Y960D02*
X2465Y1512D01*
D02*
X2465Y1512D02*
X1714Y1512D01*
D02*
X1714Y1512D02*
X1713Y1440D01*
D02*
X2835Y961D02*
X2465Y960D01*
D02*
X812Y1611D02*
X1265Y1611D01*
D02*
X1265Y1611D02*
X1265Y1762D01*
D02*
X813Y1679D02*
X812Y1611D01*
D02*
X1265Y1762D02*
X2863Y1762D01*
D02*
X2863Y1762D02*
X2863Y1289D01*
D02*
X782Y1811D02*
X642Y1811D01*
D02*
X413Y1139D02*
X413Y1782D01*
D02*
X1085Y1811D02*
X944Y1811D01*
D02*
X613Y1512D02*
X1085Y1511D01*
D02*
X613Y1440D02*
X613Y1512D01*
D02*
X1114Y510D02*
X843Y511D01*
D02*
X1142Y501D02*
X1114Y510D01*
D02*
X263Y411D02*
X263Y510D01*
D02*
X263Y510D02*
X483Y511D01*
D02*
X193Y411D02*
X263Y411D01*
D02*
X1813Y411D02*
X1735Y489D01*
D02*
X2163Y411D02*
X1813Y411D01*
D02*
X2012Y610D02*
X2163Y411D01*
D02*
X1834Y790D02*
X2012Y610D01*
D02*
X783Y511D02*
X543Y511D01*
D02*
X1383Y511D02*
X1143Y511D01*
D02*
X1683Y511D02*
X1443Y511D01*
D02*
X2163Y411D02*
X2012Y610D01*
D02*
X2012Y610D02*
X1834Y790D01*
D02*
X2333Y411D02*
X2163Y411D01*
D02*
X1592Y411D02*
X1683Y411D01*
D02*
X1292Y411D02*
X1383Y411D01*
D02*
X992Y411D02*
X1083Y411D01*
D02*
X692Y411D02*
X783Y411D01*
D02*
X392Y411D02*
X483Y411D01*
D02*
X764Y709D02*
X391Y617D01*
D02*
X801Y784D02*
X764Y709D01*
D02*
X915Y709D02*
X690Y621D01*
D02*
X914Y782D02*
X915Y709D01*
D02*
X1014Y709D02*
X976Y636D01*
D02*
X1014Y781D02*
X1014Y709D01*
D02*
X1114Y709D02*
X1239Y626D01*
D02*
X1113Y781D02*
X1114Y709D01*
D02*
X1412Y709D02*
X1539Y626D01*
D02*
X1413Y781D02*
X1412Y709D01*
D02*
X3535Y1061D02*
X3393Y1061D01*
D02*
X3562Y411D02*
X3563Y732D01*
D02*
X1992Y311D02*
X3463Y311D01*
D02*
X3463Y311D02*
X3562Y411D01*
D02*
X211Y2011D02*
X515Y2211D01*
D02*
X515Y2211D02*
X1515Y2211D01*
D02*
X1515Y2211D02*
X1511Y1959D01*
D02*
X1511Y1959D02*
X1392Y1960D01*
D02*
X213Y1139D02*
X211Y2011D01*
D02*
X263Y411D02*
X193Y411D01*
D02*
X222Y783D02*
X263Y661D01*
D02*
X3463Y109D02*
X3713Y360D01*
D02*
X3713Y360D02*
X3713Y1961D01*
D02*
X3713Y1961D02*
X1792Y1961D01*
D02*
X1892Y111D02*
X3463Y109D01*
D02*
X1563Y709D02*
X1526Y784D01*
D02*
X1762Y610D02*
X1563Y709D01*
D02*
X1843Y531D02*
X1762Y610D01*
D02*
X2962Y1162D02*
X2962Y1512D01*
D02*
X2962Y1512D02*
X3033Y1511D01*
D02*
X2643Y1161D02*
X2962Y1162D01*
D02*
X3083Y411D02*
X2893Y411D01*
D02*
X2411Y1311D02*
X1215Y1311D01*
D02*
X1215Y1311D02*
X1214Y1382D01*
D02*
X2413Y911D02*
X2411Y1311D01*
D02*
X3113Y1162D02*
X3113Y860D01*
D02*
X2465Y860D02*
X2413Y911D01*
D02*
X3113Y860D02*
X2465Y860D01*
D02*
X3333Y1161D02*
X3113Y1162D01*
D02*
X263Y212D02*
X64Y311D01*
D02*
X64Y311D02*
X64Y510D01*
D02*
X2185Y211D02*
X263Y212D01*
D02*
X64Y510D02*
X133Y511D01*
D02*
X3662Y411D02*
X3463Y211D01*
D02*
X3463Y211D02*
X2213Y211D01*
D02*
X3662Y960D02*
X3662Y411D01*
D02*
X3393Y961D02*
X3662Y960D01*
D02*
X1614Y1440D02*
X1615Y1562D01*
D02*
X1615Y1562D02*
X2511Y1559D01*
D02*
X2511Y1559D02*
X2513Y1059D01*
D02*
X2513Y1059D02*
X2583Y1060D01*
D02*
X3093Y1611D02*
X3333Y1611D01*
D02*
X1714Y709D02*
X1634Y790D01*
D02*
X1950Y536D02*
X1913Y610D01*
D02*
X1913Y610D02*
X1714Y709D01*
D02*
X1763Y1989D02*
X1763Y2082D01*
D02*
X2763Y1261D02*
X2763Y1711D01*
D02*
X2763Y1711D02*
X1315Y1711D01*
D02*
X2643Y1261D02*
X2763Y1261D01*
D02*
X1315Y1711D02*
X1313Y1440D01*
D02*
X1934Y790D02*
X2193Y531D01*
D02*
X3333Y411D02*
X3143Y411D01*
D02*
X3345Y534D02*
X3164Y761D01*
D02*
X2413Y812D02*
X2362Y860D01*
D02*
X3164Y761D02*
X2413Y812D01*
D02*
X2362Y860D02*
X2363Y1262D01*
D02*
X2363Y1262D02*
X1111Y1262D01*
D02*
X1111Y1262D02*
X1113Y1381D01*
D02*
X783Y311D02*
X543Y311D01*
D02*
X3093Y1711D02*
X3333Y1711D01*
D02*
X2712Y1361D02*
X2712Y1659D01*
D02*
X2712Y1659D02*
X1415Y1659D01*
D02*
X2643Y1361D02*
X2712Y1361D01*
D02*
X1415Y1659D02*
X1414Y1440D01*
D02*
X3393Y1060D02*
X3463Y1059D01*
D02*
X3463Y1059D02*
X3463Y1512D01*
D02*
X3463Y1512D02*
X3393Y1511D01*
D02*
X1383Y311D02*
X1143Y311D01*
D02*
X2854Y539D02*
X2814Y661D01*
D02*
X2314Y709D02*
X2263Y761D01*
D02*
X2814Y661D02*
X2314Y709D01*
D02*
X2263Y761D02*
X2263Y1159D01*
D02*
X2263Y1159D02*
X915Y1162D01*
D02*
X915Y1162D02*
X914Y1382D01*
D02*
X3463Y411D02*
X3463Y860D01*
D02*
X3393Y411D02*
X3463Y411D01*
D02*
X3463Y860D02*
X3393Y860D01*
D02*
X3333Y1411D02*
X3093Y1411D01*
D02*
X2393Y411D02*
X2583Y411D01*
D02*
X3063Y1741D02*
X3063Y1811D01*
D02*
X3063Y1811D02*
X1563Y1811D01*
D02*
X1563Y1811D02*
X1563Y2259D01*
D02*
X1563Y2259D02*
X463Y2259D01*
D02*
X463Y2259D02*
X115Y2059D01*
D02*
X115Y2059D02*
X115Y959D01*
D02*
X115Y959D02*
X1315Y959D01*
D02*
X1315Y959D02*
X1314Y840D01*
D02*
X1515Y1611D02*
X1514Y1440D01*
D02*
X2612Y1611D02*
X1515Y1611D01*
D02*
X2613Y1491D02*
X2612Y1611D01*
D02*
X2163Y661D02*
X2163Y1062D01*
D02*
X2339Y529D02*
X2163Y661D01*
D02*
X2163Y1062D02*
X711Y1059D01*
D02*
X711Y1059D02*
X713Y1382D01*
D02*
X2833Y411D02*
X2643Y411D01*
D02*
X3093Y1611D02*
X3463Y1611D01*
D02*
X3463Y1611D02*
X3463Y1861D01*
D02*
X3463Y1861D02*
X1615Y1859D01*
D02*
X1615Y1859D02*
X1611Y2311D01*
D02*
X1611Y2311D02*
X415Y2311D01*
D02*
X415Y2311D02*
X63Y2111D01*
D02*
X63Y2111D02*
X63Y911D01*
D02*
X63Y911D02*
X1215Y911D01*
D02*
X1215Y911D02*
X1214Y840D01*
D02*
X2362Y761D02*
X2314Y812D01*
D02*
X3014Y709D02*
X2362Y761D01*
D02*
X2314Y812D02*
X2311Y1211D01*
D02*
X3100Y538D02*
X3014Y709D01*
D02*
X2311Y1211D02*
X1011Y1211D01*
D02*
X1011Y1211D02*
X1013Y1381D01*
D02*
X1743Y311D02*
X1935Y311D01*
D02*
X1083Y311D02*
X843Y311D01*
D02*
X3093Y1511D02*
X3333Y1511D01*
D02*
X1683Y311D02*
X1443Y311D01*
D02*
X3014Y1310D02*
X3014Y1059D01*
D02*
X3014Y1059D02*
X2643Y1061D01*
D02*
X3050Y1384D02*
X3014Y1310D01*
D02*
X2215Y1111D02*
X815Y1111D01*
D02*
X815Y1111D02*
X813Y1381D01*
D02*
X2214Y709D02*
X2215Y1111D01*
D02*
X2263Y661D02*
X2214Y709D01*
D02*
X2564Y610D02*
X2263Y661D01*
D02*
X2600Y538D02*
X2564Y610D01*
D02*
X484Y811D02*
X442Y811D01*
G54D17*
X260Y674D02*
X266Y674D01*
X258Y673D02*
X268Y673D01*
X256Y672D02*
X270Y672D01*
X255Y671D02*
X271Y671D01*
X254Y670D02*
X272Y670D01*
X253Y669D02*
X272Y669D01*
X253Y668D02*
X273Y668D01*
X252Y667D02*
X273Y667D01*
X252Y666D02*
X274Y666D01*
X252Y665D02*
X274Y665D01*
X252Y664D02*
X274Y664D01*
X251Y663D02*
X274Y663D01*
X251Y662D02*
X274Y662D01*
X251Y661D02*
X274Y661D01*
X251Y660D02*
X274Y660D01*
X251Y659D02*
X274Y659D01*
X251Y658D02*
X274Y658D01*
X251Y657D02*
X274Y657D01*
X251Y656D02*
X274Y656D01*
X251Y655D02*
X274Y655D01*
X251Y654D02*
X274Y654D01*
X251Y653D02*
X274Y653D01*
X251Y652D02*
X274Y652D01*
X251Y651D02*
X274Y651D01*
X251Y650D02*
X274Y650D01*
X251Y649D02*
X274Y649D01*
X251Y648D02*
X274Y648D01*
X251Y647D02*
X274Y647D01*
X251Y646D02*
X274Y646D01*
X251Y645D02*
X274Y645D01*
X251Y644D02*
X274Y644D01*
X251Y643D02*
X274Y643D01*
X251Y642D02*
X274Y642D01*
X251Y641D02*
X274Y641D01*
X251Y640D02*
X274Y640D01*
X251Y639D02*
X274Y639D01*
X251Y638D02*
X274Y638D01*
X251Y637D02*
X274Y637D01*
X251Y636D02*
X274Y636D01*
X251Y635D02*
X274Y635D01*
X251Y634D02*
X274Y634D01*
X251Y633D02*
X274Y633D01*
X251Y632D02*
X274Y632D01*
X251Y631D02*
X274Y631D01*
X251Y630D02*
X274Y630D01*
X251Y629D02*
X274Y629D01*
X251Y628D02*
X274Y628D01*
X251Y627D02*
X274Y627D01*
X251Y626D02*
X274Y626D01*
X251Y625D02*
X274Y625D01*
X251Y624D02*
X274Y624D01*
X251Y623D02*
X274Y623D01*
X251Y622D02*
X274Y622D01*
X251Y621D02*
X274Y621D01*
X251Y620D02*
X274Y620D01*
X251Y619D02*
X274Y619D01*
X251Y618D02*
X274Y618D01*
X251Y617D02*
X274Y617D01*
X251Y616D02*
X274Y616D01*
X251Y615D02*
X274Y615D01*
X251Y614D02*
X274Y614D01*
X251Y613D02*
X274Y613D01*
X251Y612D02*
X274Y612D01*
X251Y611D02*
X274Y611D01*
X251Y610D02*
X274Y610D01*
X251Y609D02*
X274Y609D01*
X251Y608D02*
X274Y608D01*
X251Y607D02*
X274Y607D01*
X251Y606D02*
X274Y606D01*
X251Y605D02*
X274Y605D01*
X251Y604D02*
X274Y604D01*
X251Y603D02*
X274Y603D01*
X251Y602D02*
X274Y602D01*
X251Y601D02*
X274Y601D01*
X251Y600D02*
X274Y600D01*
X251Y599D02*
X274Y599D01*
X251Y598D02*
X274Y598D01*
X251Y597D02*
X274Y597D01*
X251Y596D02*
X274Y596D01*
X251Y595D02*
X274Y595D01*
X251Y594D02*
X274Y594D01*
X251Y593D02*
X274Y593D01*
X251Y592D02*
X274Y592D01*
X251Y591D02*
X274Y591D01*
X251Y590D02*
X274Y590D01*
X251Y589D02*
X274Y589D01*
X251Y588D02*
X274Y588D01*
X251Y587D02*
X274Y587D01*
X251Y586D02*
X274Y586D01*
X251Y585D02*
X274Y585D01*
X251Y584D02*
X274Y584D01*
X251Y583D02*
X274Y583D01*
X251Y582D02*
X274Y582D01*
X251Y581D02*
X274Y581D01*
X251Y580D02*
X274Y580D01*
X251Y579D02*
X274Y579D01*
X251Y578D02*
X274Y578D01*
X251Y577D02*
X274Y577D01*
X251Y576D02*
X274Y576D01*
X251Y575D02*
X274Y575D01*
X251Y574D02*
X274Y574D01*
X251Y573D02*
X274Y573D01*
X251Y572D02*
X274Y572D01*
X251Y571D02*
X274Y571D01*
X251Y570D02*
X274Y570D01*
X251Y569D02*
X274Y569D01*
X251Y568D02*
X274Y568D01*
X251Y567D02*
X274Y567D01*
X251Y566D02*
X274Y566D01*
X251Y565D02*
X274Y565D01*
X251Y564D02*
X274Y564D01*
X251Y563D02*
X274Y563D01*
X251Y562D02*
X274Y562D01*
X251Y561D02*
X274Y561D01*
X251Y560D02*
X274Y560D01*
X251Y559D02*
X274Y559D01*
X251Y558D02*
X274Y558D01*
X251Y557D02*
X274Y557D01*
X251Y556D02*
X274Y556D01*
X251Y555D02*
X274Y555D01*
X251Y554D02*
X274Y554D01*
X251Y553D02*
X274Y553D01*
X251Y552D02*
X274Y552D01*
X251Y551D02*
X274Y551D01*
X251Y550D02*
X274Y550D01*
X251Y549D02*
X274Y549D01*
X251Y548D02*
X274Y548D01*
X251Y547D02*
X274Y547D01*
X251Y546D02*
X274Y546D01*
X251Y545D02*
X274Y545D01*
X251Y544D02*
X274Y544D01*
X251Y543D02*
X274Y543D01*
X251Y542D02*
X274Y542D01*
X251Y541D02*
X274Y541D01*
X251Y540D02*
X274Y540D01*
X251Y539D02*
X274Y539D01*
X251Y538D02*
X274Y538D01*
X251Y537D02*
X274Y537D01*
X251Y536D02*
X274Y536D01*
X251Y535D02*
X274Y535D01*
X251Y534D02*
X274Y534D01*
X251Y533D02*
X274Y533D01*
X251Y532D02*
X274Y532D01*
X251Y531D02*
X274Y531D01*
X251Y530D02*
X274Y530D01*
X251Y529D02*
X274Y529D01*
X251Y528D02*
X274Y528D01*
X251Y527D02*
X274Y527D01*
X251Y526D02*
X274Y526D01*
X251Y525D02*
X274Y525D01*
X251Y524D02*
X274Y524D01*
X251Y523D02*
X274Y523D01*
X251Y522D02*
X274Y522D01*
X251Y521D02*
X274Y521D01*
X251Y520D02*
X274Y520D01*
X251Y519D02*
X274Y519D01*
X251Y518D02*
X274Y518D01*
X251Y517D02*
X274Y517D01*
X251Y516D02*
X274Y516D01*
X251Y515D02*
X274Y515D01*
X251Y514D02*
X274Y514D01*
X251Y513D02*
X274Y513D01*
X251Y512D02*
X274Y512D01*
X251Y511D02*
X274Y511D01*
X251Y510D02*
X274Y510D01*
X251Y509D02*
X274Y509D01*
X251Y508D02*
X274Y508D01*
X251Y507D02*
X274Y507D01*
X251Y506D02*
X274Y506D01*
X251Y505D02*
X274Y505D01*
X251Y504D02*
X274Y504D01*
X251Y503D02*
X274Y503D01*
X251Y502D02*
X274Y502D01*
X251Y501D02*
X274Y501D01*
X251Y500D02*
X274Y500D01*
X251Y499D02*
X274Y499D01*
X251Y498D02*
X274Y498D01*
X251Y497D02*
X274Y497D01*
X251Y496D02*
X274Y496D01*
X251Y495D02*
X274Y495D01*
X251Y494D02*
X274Y494D01*
X251Y493D02*
X274Y493D01*
X251Y492D02*
X274Y492D01*
X251Y491D02*
X274Y491D01*
X251Y490D02*
X274Y490D01*
X251Y489D02*
X274Y489D01*
X251Y488D02*
X274Y488D01*
X251Y487D02*
X274Y487D01*
X251Y486D02*
X274Y486D01*
X251Y485D02*
X274Y485D01*
X251Y484D02*
X274Y484D01*
X251Y483D02*
X274Y483D01*
X251Y482D02*
X274Y482D01*
X251Y481D02*
X274Y481D01*
X251Y480D02*
X274Y480D01*
X251Y479D02*
X274Y479D01*
X251Y478D02*
X274Y478D01*
X251Y477D02*
X274Y477D01*
X251Y476D02*
X274Y476D01*
X251Y475D02*
X274Y475D01*
X251Y474D02*
X274Y474D01*
X251Y473D02*
X274Y473D01*
X251Y472D02*
X274Y472D01*
X251Y471D02*
X274Y471D01*
X251Y470D02*
X274Y470D01*
X251Y469D02*
X274Y469D01*
X251Y468D02*
X274Y468D01*
X251Y467D02*
X274Y467D01*
X251Y466D02*
X274Y466D01*
X251Y465D02*
X274Y465D01*
X251Y464D02*
X274Y464D01*
X251Y463D02*
X274Y463D01*
X251Y462D02*
X274Y462D01*
X251Y461D02*
X274Y461D01*
X251Y460D02*
X274Y460D01*
X251Y459D02*
X274Y459D01*
X251Y458D02*
X274Y458D01*
X251Y457D02*
X274Y457D01*
X251Y456D02*
X274Y456D01*
X251Y455D02*
X274Y455D01*
X251Y454D02*
X274Y454D01*
X251Y453D02*
X274Y453D01*
X251Y452D02*
X274Y452D01*
X251Y451D02*
X274Y451D01*
X251Y450D02*
X274Y450D01*
X251Y449D02*
X274Y449D01*
X251Y448D02*
X274Y448D01*
X251Y447D02*
X274Y447D01*
X251Y446D02*
X274Y446D01*
X251Y445D02*
X274Y445D01*
X251Y444D02*
X274Y444D01*
X251Y443D02*
X274Y443D01*
X251Y442D02*
X274Y442D01*
X251Y441D02*
X274Y441D01*
X251Y440D02*
X274Y440D01*
X251Y439D02*
X274Y439D01*
X251Y438D02*
X274Y438D01*
X251Y437D02*
X274Y437D01*
X251Y436D02*
X274Y436D01*
X251Y435D02*
X274Y435D01*
X251Y434D02*
X274Y434D01*
X251Y433D02*
X274Y433D01*
X251Y432D02*
X274Y432D01*
X251Y431D02*
X274Y431D01*
X251Y430D02*
X274Y430D01*
X251Y429D02*
X274Y429D01*
X251Y428D02*
X274Y428D01*
X251Y427D02*
X274Y427D01*
X251Y426D02*
X274Y426D01*
X251Y425D02*
X274Y425D01*
X251Y424D02*
X274Y424D01*
X251Y423D02*
X274Y423D01*
X251Y422D02*
X274Y422D01*
X251Y421D02*
X274Y421D01*
X251Y420D02*
X274Y420D01*
X251Y419D02*
X274Y419D01*
X251Y418D02*
X274Y418D01*
X251Y417D02*
X274Y417D01*
X251Y416D02*
X274Y416D01*
X251Y415D02*
X274Y415D01*
X251Y414D02*
X274Y414D01*
X251Y413D02*
X274Y413D01*
X251Y412D02*
X274Y412D01*
X252Y411D02*
X274Y411D01*
X252Y410D02*
X274Y410D01*
X252Y409D02*
X274Y409D01*
X252Y408D02*
X274Y408D01*
X253Y407D02*
X273Y407D01*
X253Y406D02*
X273Y406D01*
X254Y405D02*
X272Y405D01*
X255Y404D02*
X271Y404D01*
X256Y403D02*
X270Y403D01*
X257Y402D02*
X268Y402D01*
X259Y401D02*
X266Y401D01*
D02*
G04 End of Copper0*
M02*