; NON-PLATED HOLES START AT T1
; THROUGH (PLATED) HOLES START AT T100
M48
INCH
T1C0.125984
T100C0.035000
T101C0.036000
T102C0.040000
T103C0.038000
%
T1
X001132Y001106
X036632Y001106
X001132Y023106
X036632Y023106
T100
X012632Y006106
X019632Y003105
X009632Y006106
X006632Y004106
X028632Y009606
X003632Y004106
X004132Y011106
X028632Y012606
X022132Y005106
X019632Y005106
X011132Y018106
X006632Y006106
X006132Y018106
X011132Y015106
X017632Y021106
X015632Y006106
X022132Y002105
X013632Y019606
X018632Y001105
X009632Y004106
X002132Y011106
X004132Y008106
X012632Y004106
X017632Y019606
X035632Y010606
X003632Y006106
X002132Y008106
X015632Y004106
X018632Y005106
X035632Y007606
X004132Y018106
X013632Y021106
T101
X011132Y014106
X009132Y008106
X012132Y014106
X008132Y008106
X013132Y014106
X014132Y008106
X012132Y008106
X007132Y014106
X009132Y014106
X013132Y008106
X014132Y014106
X019132Y014106
X017132Y008106
X006132Y008106
X019132Y008106
X006132Y014106
X015132Y008106
X018132Y008106
X007132Y008106
X018132Y014106
X011132Y008106
X016132Y008106
X005132Y008106
X008132Y014106
X010132Y014106
X016132Y014106
X010132Y008106
X005132Y014106
X015132Y014106
X017132Y014106
T102
X008132Y018106
X008132Y019106
X009132Y018106
X008132Y017106
X009132Y017106
X009132Y019106
T103
X030632Y014106
X033632Y009606
X026132Y010606
X033632Y004106
X033632Y008606
X028632Y005106
X033632Y016106
X033632Y005106
X014132Y005106
X031132Y004106
X008132Y003105
X033632Y014106
X014132Y003105
X030632Y015106
X031132Y005106
X011132Y005106
X030632Y016106
X026132Y013606
X001632Y004106
X033632Y017106
X033632Y011606
X005132Y003105
X017132Y005106
X023632Y004106
X033632Y010606
X005132Y005106
X026132Y005106
X026132Y011606
X028632Y004106
X033632Y015106
X026132Y004106
X008132Y005106
X033632Y007606
X008132Y004106
X014132Y004106
X026132Y014606
X001632Y005106
X026132Y012606
X011132Y004106
X005132Y004106
X023632Y005106
X011132Y003105
X017132Y004106
X030632Y017106
X017132Y003105
T00
M30
