G04 MADE WITH FRITZING*
G04 WWW.FRITZING.ORG*
G04 DOUBLE SIDED*
G04 HOLES PLATED*
G04 CONTOUR ON CENTER OF CONTOUR VECTOR*
%ASAXBY*%
%FSLAX23Y23*%
%MOIN*%
%OFA0B0*%
%SFA1.0B1.0*%
%ADD10C,0.085000*%
%ADD11C,0.135984*%
%ADD12C,0.088000*%
%ADD13C,0.080000*%
%ADD14C,0.084000*%
%ADD15R,0.080000X0.079972*%
%ADD16R,0.084000X0.084000*%
%LNMASK1*%
G90*
G70*
G54D10*
X2863Y1261D03*
X2863Y961D03*
X413Y1811D03*
X613Y1811D03*
X1113Y1811D03*
X1113Y1511D03*
X3563Y1061D03*
X3563Y761D03*
X213Y1111D03*
X213Y811D03*
X1863Y511D03*
X1863Y111D03*
G54D11*
X113Y111D03*
X113Y2311D03*
X3663Y2311D03*
X3663Y111D03*
G54D10*
X413Y1111D03*
X413Y811D03*
G54D12*
X3063Y1711D03*
X3063Y1611D03*
X3063Y1511D03*
X3063Y1411D03*
G54D10*
X1763Y1961D03*
X1363Y1961D03*
X1363Y2111D03*
X1763Y2111D03*
G54D12*
X3363Y511D03*
X3363Y411D03*
X3113Y511D03*
X3113Y411D03*
X2863Y511D03*
X2863Y411D03*
X2613Y511D03*
X2613Y411D03*
X2363Y511D03*
X2363Y411D03*
X3363Y1161D03*
X3363Y1061D03*
X3363Y961D03*
X3363Y861D03*
X3363Y761D03*
X2613Y1061D03*
X2613Y1161D03*
X2613Y1261D03*
X2613Y1361D03*
X2613Y1461D03*
X3363Y1711D03*
X3363Y1611D03*
X3363Y1511D03*
X3363Y1411D03*
G54D13*
X1913Y1411D03*
X1813Y1411D03*
X1713Y1411D03*
X1613Y1411D03*
X1513Y1411D03*
X1413Y1411D03*
X1313Y1411D03*
X1213Y1411D03*
X1113Y1411D03*
X1013Y1411D03*
X913Y1411D03*
X813Y1411D03*
X713Y1411D03*
X613Y1411D03*
X513Y1411D03*
X1913Y811D03*
X1813Y811D03*
X1713Y811D03*
X1613Y811D03*
X1513Y811D03*
X1413Y811D03*
X1313Y811D03*
X1213Y811D03*
X1113Y811D03*
X1013Y811D03*
X913Y811D03*
X813Y811D03*
X713Y811D03*
X613Y811D03*
X513Y811D03*
G54D12*
X163Y411D03*
X163Y511D03*
X1713Y311D03*
X1713Y411D03*
X1713Y511D03*
X1413Y311D03*
X1413Y411D03*
X1413Y511D03*
X1113Y311D03*
X1113Y411D03*
X1113Y511D03*
X813Y311D03*
X813Y411D03*
X813Y511D03*
X513Y311D03*
X513Y411D03*
X513Y511D03*
G54D14*
X913Y1911D03*
X913Y1811D03*
X913Y1711D03*
X813Y1911D03*
X813Y1811D03*
X813Y1711D03*
G54D10*
X2213Y511D03*
X2213Y211D03*
X1563Y611D03*
X1563Y411D03*
X1263Y611D03*
X1263Y411D03*
X963Y611D03*
X963Y411D03*
X663Y611D03*
X663Y411D03*
X363Y611D03*
X363Y411D03*
X1963Y511D03*
X1963Y311D03*
G54D15*
X1913Y1411D03*
G54D16*
X813Y1911D03*
G04 End of Mask1*
M02*